<svg width="32" height="32" viewBox="0 0 28 28" fill="none" xmlns="http://www.w3.org/2000/svg" color="#6A6B6A" aria-hidden="true" focusable="false"><path d="M23.375 14C23.375 14.2984 23.2565 14.5845 23.0455 14.7955C22.8345 15.0065 22.5484 15.125 22.25 15.125H15.125V22.25C15.125 22.5484 15.0065 22.8345 14.7955 23.0455C14.5845 23.2565 14.2984 23.375 14 23.375C13.7016 23.375 13.4155 23.2565 13.2045 23.0455C12.9935 22.8345 12.875 22.5484 12.875 22.25V15.125H5.75C5.45163 15.125 5.16548 15.0065 4.9545 14.7955C4.74353 14.5845 4.625 14.2984 4.625 14C4.625 13.7016 4.74353 13.4155 4.9545 13.2045C5.16548 12.9935 5.45163 12.875 5.75 12.875H12.875V5.75C12.875 5.45163 12.9935 5.16548 13.2045 4.9545C13.4155 4.74353 13.7016 4.625 14 4.625C14.2984 4.625 14.5845 4.74353 14.7955 4.9545C15.0065 5.16548 15.125 5.45163 15.125 5.75V12.875H22.25C22.5484 12.875 22.8345 12.9935 23.0455 13.2045C23.2565 13.4155 23.375 13.7016 23.375 14Z" fill="#6A6B6A"></path>
  </svg>
