<svg id='Unlock_Private_24' width='24' height='24' viewBox='0 0 24 24'
  xmlns='http://www.w3.org/2000/svg' xmlns:xlink='http://www.w3.org/1999/xlink'>
  <rect width='24' height='24' stroke='none' fill='#000000' opacity='0' />
  <g transform="matrix(0.83 0 0 0.83 12 12)">
    <path
      style="stroke: none; stroke-width: 1; stroke-dasharray: none; stroke-linecap: butt; stroke-dashoffset: 0; stroke-linejoin: miter; stroke-miterlimit: 4; fill: #ffffff; fill-rule: nonzero; opacity: 1;"
      transform=" translate(-15, -15)"
      d="M 15 3 C 8.373 3 3 8.373 3 15 C 3 21.627 8.373000000000001 27 15 27 C 21.627 27 27 21.627 27 15 C 27 8.373 21.627 3 15 3 z M 20 20 C 20 20.552 19.552 21 19 21 L 11 21 C 10.448 21 10 20.552 10 20 L 10 15 C 10 14.448 10.448 14 11 14 L 11 12 C 11 9.794 12.794 8 15 8 C 16.682 8 18.192 9.071 18.759 10.665 C 18.944 11.186 18.672 11.758 18.152 11.941999999999998 C 17.630000000000003 12.124999999999998 17.059 11.854 16.875 11.334999999999999 C 16.591 10.536 15.838 10 15 10 C 13.897 10 13 10.897 13 12 L 13 14 L 19 14 C 19.552 14 20 14.448 20 15 L 20 20 z"
      stroke-linecap="round" />
  </g>
</svg>
