<svg id='world_24' width='24' height='24' viewBox='0 0 24 24' xmlns='http://www.w3.org/2000/svg'
  xmlns:xlink='http://www.w3.org/1999/xlink'>
  <rect width='24' height='24' stroke='none' fill='#ffffff' opacity='0' />
  <g transform="matrix(1 0 0 1 12 12)">
    <g style="">
      <g transform="matrix(1 0 0 1 0 0)">
        <path
          style="stroke: none; stroke-width: 2; stroke-dasharray: none; stroke-linecap: round; stroke-dashoffset: 0; stroke-linejoin: round; fill: none; fill-rule: nonzero; opacity: 1;"
          transform=" translate(-12, -12)" d="M 0 0 L 24 0 L 24 24 L 0 24 z" stroke-linecap="round" />
      </g>
      <g transform="matrix(1 0 0 1 0 0)">
        <circle
          style="stroke: white; stroke-width: 2; stroke-dasharray: none; stroke-linecap: round; stroke-dashoffset: 0; stroke-linejoin: round; fill: none; fill-rule: nonzero; opacity: 1;"
          cx="0" cy="0" r="9" />
      </g>
      <g transform="matrix(1 0 0 1 0 -3)">
        <line
          style="stroke: white; stroke-width: 2; stroke-dasharray: none; stroke-linecap: round; stroke-dashoffset: 0; stroke-linejoin: round; fill: none; fill-rule: nonzero; opacity: 1;"
          x1="-8.399999999999999" y1="0" x2="8.399999999999999" y2="0" />
      </g>
      <g transform="matrix(1 0 0 1 0 3)">
        <line
          style="stroke: white; stroke-width: 2; stroke-dasharray: none; stroke-linecap: round; stroke-dashoffset: 0; stroke-linejoin: round; fill: none; fill-rule: nonzero; opacity: 1;"
          x1="-8.399999999999999" y1="0" x2="8.399999999999999" y2="0" />
      </g>
      <g transform="matrix(1 0 0 1 -1.79 0)">
        <path
          style="stroke: white; stroke-width: 2; stroke-dasharray: none; stroke-linecap: round; stroke-dashoffset: 0; stroke-linejoin: round; fill: none; fill-rule: nonzero; opacity: 1;"
          transform=" translate(-10.21, -12)"
          d="M 11.5 3 C 8.062940135807942 8.50777581208167 8.062940135807944 15.49222418791833 11.500000000000002 21"
          stroke-linecap="round" />
      </g>
      <g transform="matrix(1 0 0 1 1.79 0)">
        <path
          style="stroke: white; stroke-width: 2; stroke-dasharray: none; stroke-linecap: round; stroke-dashoffset: 0; stroke-linejoin: round; fill: none; fill-rule: nonzero; opacity: 1;"
          transform=" translate(-13.79, -12)"
          d="M 12.5 3 C 15.937059864192058 8.50777581208167 15.937059864192058 15.492224187918328 12.500000000000002 21"
          stroke-linecap="round" />
      </g>
    </g>
  </g>
</svg>
